<svg xmlns="http://www.w3.org/2000/svg" width="1920" height="1074" viewBox="0 0 1920 1074">
  <defs>
    <style>
      .cls-1 {
        fill-rule: evenodd;
      }
    </style>
  </defs>
  <path id="Color_Fill_1" data-name="Color Fill 1" class="cls-1" d="M0,0H1920V585l-555-1c0.99-17.046-.71-32.05-3-47-14.05-.28-20.07-4.774-30-7-22.37-5.014-36.59,6.827-49,13,4.03-14.209,17.85-30.105,14-50-15.57-80.49-109.08-134.124-186-153l-85-9c-36.849-6.238-70.5-2.739-111-4l-46-1c-90.993,19.14-218.979,44.572-236,135l10,82c-11.619-6.115-25.145-9.282-38-2l-6,18L0,558V0Z"/>
</svg>
