<svg xmlns="http://www.w3.org/2000/svg" width="1920" height="1074" viewBox="0 0 1920 1074">
  <defs>
    <style>
      .cls-1 {
        fill-rule: evenodd;
      }
    </style>
  </defs>
  <path id="Color_Fill_1" data-name="Color Fill 1" class="cls-1" d="M0,0H1920V638c0,11.317,3.93,39.133-2,46-21.6,27.21-88.44,7.28-131,14l-36,8h-92c-70.22,0-150.19,3.08-206-10-24.2-5.673-82.7-16.747-91-34-6.59-14.7,1.87-31.626,4-43,6.07-32.41,1.1-79.4-14-93-29.27-.312-41.49,18.572-68,21,26.87-47.587-14.4-127.746-44-150-14.29-10.746-35.2-15.119-53-22q-20.505-10.5-41-21c-21.7-7.549-41.42-8.582-61-17-12.74-5.478-23.48-15.784-40-19-49.171-9.575-90.1,8.91-133,16H859c-75.887,13.592-203.48,49.625-221,116-4.207,15.937,10.162,24.579,8,39-2.125,14.172-10.2,27.982-7,45-12.08-.406-23.01-0.119-30,4l-17,56c-4.533,21.189-1.791,47.226-5,71-24.9,25.814-131.527-1-167-1H370c-44.937-8.211-96.5-28.113-157-18C146,657.2,80.551,679.958,0,668V0ZM640,536l5,3Z"/>
</svg>
